<svg xmlns="http://www.w3.org/2000/svg" viewBox="0 0 283.46529 70.44035" class="landing__logo"><title>Logo_legrand_black</title><path d="M45.1464,4.1324v47.143H32.6401V17.1758h-13.75V4.1324Z"></path><path d="M14.1762,17.1758V0h3.0254V17.1758Z"></path><path d="M.0004,51.291,0,4.148H12.497l.0005,34.1011H26.2548V51.291Z"></path><path d="M30.9707,38.2481V55.4239H27.9443l-.001-17.1758Z"></path><path d="M277.61179,2.7989a5.85545,5.85545,0,1,0,5.8535,5.8549A5.85278,5.85278,0,0,0,277.61179,2.7989Zm0,10.8735a5.0176,5.0176,0,1,1,5.0156-5.0186A5.01778,5.01778,0,0,1,277.61179,13.6724Z"></path><path d="M276.09319,11.6504h-.8291V5.5044h2.8438c1.0097,0,2.0195.3477,2.0195,1.6509a1.51709,1.51709,0,0,1-.8555,1.4736c.3487.1451.7012.2998.7364,1.1543l.0498,1.1148c.0097.3432.0517.4712.3095.6167v.1357h-1.0185a7.57355,7.57355,0,0,1-.1455-1.54c0-.5069-.1035-1.0967-1.0957-1.0967h-2.0147Zm0-3.3486h1.9287c.6055,0,1.25-.1538,1.25-1.0615,0-.9497-.6953-1.0264-1.1035-1.0264h-2.0752Z"></path><path d="M72.54934,2.8008V53.67971H61.46242V2.8008Z" class="landing__logo-path"></path><path d="M162.6547,16.4561v3.8135s4.792-4.4561,10.6075-4.4561v8.9653s-10.4834.6109-10.5713,9.9087V53.6826H150.8198V16.4561Z" class="landing__logo-path"></path><path d="M211.33929,16.4453v3.504c12.3438-8.0118,19.69141.2563,19.69141,5.8618V53.6826H219.809V31.7281c0-5.6612-8.4697-5.3052-8.4697,0V53.6826h-11.4248V16.4453Z" class="landing__logo-path"></path><path d="M177.1352,39.9961a4.7842,4.7842,0,1,1,4.7822,4.7862A4.78274,4.78274,0,0,1,177.1352,39.9961Zm-1.1221-15.5127a24.54058,24.54058,0,0,1,5.2998-.1142c5.462.1948,4.79789,4.6347,4.79789,4.6347a14.13494,14.13494,0,0,0-6.45509-1.6547c-4.1904-.0738-12.5742,2.5073-12.5742,13.5698,0,9.7656,7.8027,12.5761,12.4521,12.5761a11.70582,11.70582,0,0,0,7.07129-2.1513v2.3359H197.3627V28.3399c0-4.9619-.89741-6.2837-3.14451-8.7696-3.14349-3.4751-10.58889-3.7524-10.58889-3.7524h-7.6162Z" class="landing__logo-path"></path><path d="M250.1167,17.625c-11.91611-.2924-16.98831,9.7671-16.98541,17.6524-.0791,10.3349,6.73341,18.7773,16.8857,17.9756a12.03539,12.03539,0,0,0,6.34971-2.7276v3.1572h11.53119V2.7945H256.3667V19.6831C253.99259,17.9493,250.1167,17.625,250.1167,17.625Zm-.15531,24.9951a7.1838,7.1838,0,1,1,7.1816-7.1835A7.18549,7.18549,0,0,1,249.96139,42.6201Z" class="landing__logo-path"></path><path d="M130.7714,59.6397c-5.2905-.2285-6.3999-3.627-6.3999-3.627H111.0673c2.7657,18.5957,35.4146,19.333,36.937,1.5293V16.4283H136.8818v3.8735c-7.6484-7.7407-25.5083-2.1392-24.8955,15.3047.5722,16.3135,17.8555,21.2217,24.8955,14.8974v4.3868C136.851,59.836,130.7714,59.6397,130.7714,59.6397Zm-.8076-17.3369a7.199,7.199,0,1,1,7.1968-7.1983A7.19945,7.19945,0,0,1,129.9638,42.3028Z" class="landing__logo-path"></path><path d="M92.4326,15.0669c-9.0801,0-17.9629,7.439-17.9561,19.1792.0093,13.211,8.2691,20.8614,19.1587,20.5235,8.3403-.2569,14.1309-5.5069,16.2236-12.919H98.4838c-.5825,1.1914-2.2119,2.5567-5.5546,2.5567a6.13865,6.13865,0,0,1-6.4581-6.2608l24.0542-.0097C111.8833,24.4126,103.0273,15.0669,92.4326,15.0669ZM86.2929,30.3482a6.19231,6.19231,0,0,1,12.3018.0005Z" class="landing__logo-path"></path></svg>
